# xmcd
#
# Track frame offsets:
#	150
#	19670
#	33533
#	50275
#	64658
#	79914
#	93698
#	108488
#	125288
#	139479
#	155197
#	175372
#
# Disc length: 2513 seconds
# Revision: 0
# Processed by: cddbd v1.5.2PL0 Copyright (c) Steve Scherf et al.
# Submitted via: dBpowerAMP V12.0
#
DISCID=a909cf0c
DTITLE=Jeff Dayton - Play Your Heart Out
DYEAR=2013
DGENRE=Country
TTITLE0=Play Your Heart Out
TTITLE1=Don't Get Me Started
TTITLE2=Soy Malo
TTITLE3=Perfect Girl
TTITLE4=Beer It Up
TTITLE5=Oklahoma Road
TTITLE6=Guitar Man
TTITLE7=There And Back Again
TTITLE8=Louder You Scream
TTITLE9=Flutterby, Butterfly
TTITLE10=Which Half Of Your Life
TTITLE11=Have A Biscuit
EXTD=
EXTT0=
EXTT1=
EXTT2=
EXTT3=
EXTT4=
EXTT5=
EXTT6=
EXTT7=
EXTT8=
EXTT9=
EXTT10=
EXTT11=
PLAYORDER=
